<svg t="1678426986983" class="icon" viewBox="0 0 1024 1024" version="1.1" xmlns="http://www.w3.org/2000/svg"
     p-id="1634" width="45" height="45">
    <path
            d="M512 57.677643C226.27383 57.677643 57.677643 226.27383 57.677643 512s168.596187 454.322357 454.322357 454.322357 454.322357-168.596187 454.322357-454.322357S797.72617 57.677643 512 57.677643z"
            fill="#86BB73" p-id="1635"></path>
    <path
            d="M740.449608 462.042288l-36.913691-159.367765c-4.702946-20.320277-22.804853-34.695321-43.657539-34.69532h-295.753206c-20.852686 0-38.954593 14.375043-43.657539 34.69532l-36.913692 159.367765v249.167417c0 11.890468 4.702946 23.248527 13.132756 31.678337 8.429809 8.429809 19.787868 13.132756 31.678336 13.132755h367.273483c24.757019 0 44.811092-20.054073 44.811092-44.811092V462.042288z"
            fill="#A4CC95" p-id="1636"></path>
    <path
            d="M695.638516 769.508492h-367.273483c-15.528596 0-30.169844-6.033969-41.172964-17.037088-11.00312-11.00312-17.037088-25.644367-17.037088-41.172964V460.533795l37.268631-160.876256c6.122704-26.531716 29.459965-45.077296 56.790294-45.077296h295.664472c27.241594 0 50.578856 18.545581 56.790294 45.077296l37.268631 160.876256v250.67591c-0.088735 32.12201-26.176776 58.298787-58.298787 58.298787z m-398.685615-305.957712v247.658925c0 8.341075 3.283189 16.238475 9.228423 22.183709 5.945234 5.945234 13.842634 9.228423 22.183709 9.228423h367.273483c17.303293 0 31.323397-14.108839 31.323397-31.323397V463.639515l-36.558752-157.948007c-3.283189-14.286308-15.883536-24.313345-30.524783-24.313345h-295.753206c-14.641248 0-27.241594 10.027036-30.524784 24.313345l-36.647487 157.859272z"
            fill="#FFFFFF" p-id="1637"></path>
    <path
            d="M526.346648 645.723397h-26.886655v-62.02565h34.251647v-58.298787h-43.568805v23.159792h-26.79792v-49.957712h97.164645v111.983362h-34.162912zM511.88287 664.623917c-10.736915 0-19.521664 8.518544-19.521664 19.077989s8.784749 19.07799 19.521664 19.07799 19.521664-8.518544 19.521664-19.07799-8.696014-19.07799-19.521664-19.077989z"
            fill="#FFFFFF" p-id="1638"></path>
    <path
            d="M726.606974 462.042288l-36.558752-156.616985c-3.283189-14.197574-15.97227-24.22461-30.524784-24.22461h-295.132062c-14.552513 0-27.241594 10.027036-30.524783 24.22461l-36.647487 156.616985h429.387868z"
            opacity=".15" p-id="1639"></path>
    <path
            d="M381.705317 357.409719c0 3.726863 1.508492 7.364991 4.170537 10.027037s6.300173 4.170537 10.027037 4.170537h232.041594c3.726863 0 7.364991-1.508492 10.027037-4.170537s4.170537-6.300173 4.170537-10.027037c0-3.726863-1.508492-7.364991-4.170537-10.027036s-6.300173-4.170537-10.027037-4.170537h-232.041594c-3.726863 0-7.364991 1.508492-10.027037 4.170537s-4.170537 6.300173-4.170537 10.027036z"
            fill="#FFFFFF" p-id="1640"></path>
    <path
            d="M642.142059 357.409719c0-3.726863-1.508492-7.364991-4.170537-10.027036s-6.300173-4.170537-10.027037-4.170537h-232.041594c-3.726863 0-7.364991 1.508492-10.027037 4.170537s-4.170537 6.300173-4.170537 10.027036h260.436742z"
            opacity=".3" p-id="1641"></path>
</svg>