<svg t="1678426789115" class="icon" viewBox="0 0 1024 1024" version="1.1" xmlns="http://www.w3.org/2000/svg"
     p-id="1235" width="45" height="45">
    <path
            d="M513.1 66.2c-246.9 0-447 200.1-447 447s200.1 447 447 447 447-200.1 447-447-200.1-447-447-447z m127.1 737c0 5.4-4.4 9.8-9.8 9.8H329.6c-5.2 0-9.5-4.2-9.8-9.3L278 761.9c-1.3-1.3-1.7-3.2-1.2-4.9-0.1-0.5-0.1-1.1-0.1-1.6v-487c0-0.5 0-1.1 0.1-1.6-1.1-1.8-0.8-4.3 0.8-5.8l43.1-43.2 4.9-4.9c0.3-0.3 0.6-0.5 0.9-0.7 0.8-0.3 1.7-0.6 2.6-0.7 0.5-0.1 1-0.1 1.5-0.1H693c2 0 4 0.6 5.6 1.6l3.6 3.6 43.2 43.2c1.7 1.7 1.9 4.5 0.4 6.4v363c0 5.9-4.9 10.8-10.8 10.8h-5.3c-5.9 0-10.8-4.8-10.8-10.8V271.4l-33.1-33.1H338.2L303.5 273v476.5l36.7 36.7h290.2c5.4 0 9.8 4.4 9.8 9.8v7.2zM336.7 320c-6.6 0-12-5.4-12-12v-6.3c0-6.6 5.4-12 12-12h349.8c6.6 0 12 5.4 12 12v6.3c0 6.6-5.4 12-12 12H336.7z m196.5 57.6V390c0 4.9-4 9-9 9H333.6c-4.9 0-9-4-9-9v-12.4c0-4.9 4-9 9-9h190.7c4.9 0 8.9 4.1 8.9 9z m217.9 431.1l-1.5 1.6c-5.4 5.4-14.2 5.4-19.5 0L612.6 692.8c-18.2 14.1-41 22.5-65.7 22.5-59.3 0-107.3-48-107.3-107.3s48-107.3 107.3-107.3 107.3 48 107.3 107.3c0 23.8-7.7 45.7-20.8 63.5l117.7 117.7c5.4 5.3 5.4 14.1 0 19.5z"
            fill="#29ABE2" p-id="1236"></path>
    <path
            d="M326.5 212.3c-0.3 0.2-0.6 0.4-0.9 0.7l-4.9 4.9c1.1-2.6 3.2-4.6 5.8-5.6zM702.2 216.6l-3.6-3.6c1.4 0.9 2.7 2.2 3.6 3.6zM693 211.5h-2c1.9-1.5 4.6-1.3 6.4 0.4l1.1 1.1c-1.6-1-3.5-1.5-5.5-1.5zM329 211.6c-0.9 0.1-1.7 0.4-2.6 0.7 0.9-0.5 1.7-0.8 2.6-0.7z"
            fill="#FFFFFF" p-id="1237"></path>
</svg>