<svg class="icon" viewBox="0 0 1024 1024" version="1.1"
     xmlns="http://www.w3.org/2000/svg" width="1em" height="1em" style="margin-right: 5px">
    <path
            d="M256 755.2l55.466667-17.066667 17.066666 12.8c21.333333 12.8 38.4 25.6 64 38.4l21.333334 8.533334 8.533333 55.466666h145.066667l12.8-55.466666 21.333333-8.533334c21.333333-8.533333 42.666667-21.333333 64-38.4l17.066667-12.8 55.466666 17.066667 72.533334-128-42.666667-38.4 4.266667-21.333333c0-12.8 4.266667-25.6 4.266666-38.4s0-25.6-4.266666-38.4l-4.266667-17.066667 42.666667-38.4-72.533334-128-55.466666 21.333333-17.066667-12.8c-21.333333-12.8-38.4-25.6-64-38.4l-21.333333-8.533333-12.8-55.466667H422.4l-12.8 55.466667-21.333333 8.533333c-21.333333 8.533333-42.666667 21.333333-59.733334 34.133334l-21.333333 17.066666L256 311.466667l-72.533333 128 42.666666 38.4-4.266666 21.333333c0 12.8-4.266667 25.6-4.266667 38.4s0 25.6 4.266667 38.4l4.266666 21.333333-42.666666 38.4L256 755.2z m-76.8-179.2c0-12.8-4.266667-25.6-4.266667-42.666667s0-29.866667 4.266667-42.666666L128 443.733333l106.666667-183.466666 64 21.333333c21.333333-17.066667 46.933333-29.866667 72.533333-42.666667L388.266667 170.666667h213.333333l17.066667 68.266666c25.6 12.8 51.2 25.6 72.533333 42.666667l64-21.333333 106.666667 183.466666-51.2 46.933334c0 12.8 4.266667 25.6 4.266666 42.666666s0 29.866667-4.266666 42.666667l51.2 46.933333-106.666667 183.466667-64-21.333333c-21.333333 17.066667-46.933333 29.866667-72.533333 42.666666l-17.066667 68.266667h-213.333333l-17.066667-68.266667c-25.6-12.8-51.2-25.6-72.533333-42.666666l-64 21.333333L128 622.933333l51.2-46.933333z m315.733333 64c59.733333 0 106.666667-46.933333 106.666667-106.666667S554.666667 426.666667 494.933333 426.666667s-106.666667 46.933333-106.666666 106.666666 46.933333 106.666667 106.666666 106.666667z m0 42.666667c-81.066667 0-149.333333-68.266667-149.333333-149.333334S413.866667 384 494.933333 384s149.333333 68.266667 149.333334 149.333333-68.266667 149.333333-149.333334 149.333334z"
            fill="#8590a6"></path>
</svg>