<svg class="icon" viewBox="0 0 1024 1024" version="1.1" xmlns="http://www.w3.org/2000/svg"
     width="30" height="30">
    <path d="M506.72 128.192c-24.736 1.888-46.72 16.64-57.856 38.976l-85.952 174.816-192.96 35.456c-22.528 3.296-42.72 19.424-52.192 41.568l-2.08 5.44-1.536 5.568a70.4 70.4 0 0 0 18.336 66.496l138.72 129.6-35.904 186.432c-4.224 28.16 6.112 53.76 26.752 69.248l3.2 2.432 3.52 1.984c20.8 11.872 44.224 12.16 64.736 3.552l3.616-1.632 174.816-86.336 174.304 86.528 4.992 2.112c23.424 9.088 48.928 7.552 69.856-8.928l2.464-2.016a70.4 70.4 0 0 0 24.352-64.96l-35.168-188.416 137.44-129.536c20.192-20.192 26.176-47.392 18.688-71.744l-1.92-5.152a70.688 70.688 0 0 0-49.824-42.784l-2.88-0.576-193.184-34.304-85.952-174.816A70.4 70.4 0 0 0 512.064 128l-5.344 0.192zM512 192c2.4 0 4.576 1.312 5.632 3.424l100.288 203.968 224.64 39.84a6.4 6.4 0 0 1 5.12 4.416 6.336 6.336 0 0 1-1.44 6.336l-162.848 153.536 41.28 221.12a6.4 6.4 0 0 1-2.56 6.016c-1.792 1.664-4.288 1.792-7.456 0.32L512 730.432 308.8 830.72c-3.136 1.28-5.888 1.28-8.288-0.096a6.336 6.336 0 0 1-2.368-6.016l42.592-221.12-162.944-152.192a6.24 6.24 0 0 1-1.792-4.672l0.384-1.92a6.4 6.4 0 0 1 5.12-4.352l224.64-41.28 100-203.392A6.592 6.592 0 0 1 512.032 192z"
          fill="#707070"></path>
</svg>