<svg t="1681453146062" class="icon" viewBox="0 0 1024 1024" version="1.1" xmlns="http://www.w3.org/2000/svg" p-id="1764"
     width="50" height="50">
    <path d="M960 64l-896 0L960 960 960 64zM940.8 518.4l-19.20000001 0C921.59999999 512 921.59999999 499.2 915.2 480l12.8 0C934.4 492.8 940.8 505.6 940.8 518.4zM716.8 275.2l19.2 6.4c-6.4 12.8-6.4 19.2-12.8 32l64 64-25.6 25.6L742.4 390.4 761.6 371.19999999 646.4 256l-19.2 19.2L614.4 262.4 646.4 230.4l64 64C710.4 288 716.8 281.6 716.8 275.2zM729.6 403.2L620.8 294.4 627.2 281.6l108.8 108.8L729.6 403.2zM473.6 313.6L390.4 230.4c-12.8-12.8-12.8-32 0-51.2L473.6 102.4l12.8 12.8-19.2 19.2 89.6 89.6L601.59999999 192 486.4 76.8 499.2 70.4 620.8 192l-70.4 70.4L537.6 249.6 550.4 243.2 454.4 147.2 409.6 192c-6.4 6.4-12.8 19.2 0 25.6l76.8 76.8C492.8 307.2 505.6 307.2 512 307.2 518.4 300.8 531.19999999 294.4 537.6 281.6c0 6.4 6.4 12.8 6.4 19.2C537.6 313.6 524.8 320 518.4 326.4 505.6 332.8 492.8 326.4 473.6 313.6zM640 486.4L614.4 460.8C601.6 448 601.6 435.2 614.4 422.4L652.8 390.4 620.8 358.4c-32 25.6-64 32-108.8 6.4 0-6.4 0-12.8 6.4-19.2 38.4 25.6 70.4 25.6 96 0L569.6 307.2 576 294.4l147.2 147.2L710.4 448 665.6 403.2l-32 32c-6.4 6.4-6.4 12.8 0 19.2l19.2 19.2c6.4 6.4 12.8 6.4 19.2 6.4C672 467.2 678.4 467.2 684.8 454.39999999c0 6.4 6.4 12.8 6.4 19.20000001-6.4 6.4-19.2 12.8-25.6 19.2C665.6 499.2 652.8 499.2 640 486.4zM787.2 627.2c0-12.8 0-25.6 6.4-38.4-19.2 0-38.4 0-51.2-6.4 0-6.4 0-12.8 0-19.2C761.6 576 780.8 576 800 576 812.8 550.4 832 524.8 864 492.8L806.40000001 428.8l-25.60000001 25.6 44.8 44.8c-19.2 19.2-38.4 32-51.2 44.8-12.8 12.8-32 12.8-44.8 0C729.6 544 723.2 537.6 716.8 531.2 716.8 524.8 723.2 518.4 729.60000001 512c6.4 6.4 12.8 12.8 19.19999999 19.19999999 6.4 6.4 12.8 6.4 25.6 1e-8C774.4 524.8 787.2 512 800 499.2L768 467.2c-38.4 32-70.4 51.2-102.4 57.6 0-6.4 0-12.8 0-19.2C697.6 499.2 729.6 480 761.6 448L806.4 409.6l70.4 70.4C883.2 467.2 889.6 460.8 902.4 448l12.8 12.8C908.8 473.6 896 480 889.6 492.80000001l51.2 51.19999999-12.8 12.8L876.8 499.2C851.2 531.2 832 556.8 819.2 569.60000001 844.8 569.60000001 870.4 563.2 889.6 550.4l6.4 19.2c-32 12.8-57.60000001 19.2-89.59999999 25.6-6.4 25.6-6.4 38.4-1e-8 44.8 0 0 6.4 0 12.8 0C832 627.2 844.8 620.8 851.2 614.4c0 6.4 6.4 12.8 6.4 19.2-12.8 6.4-25.6 19.2-32 19.2-6.4 6.4-19.2 6.4-25.6 0C793.6 646.4 793.6 640 787.2 627.2z"
          fill="#1afa29" p-id="1765"></path>
</svg>