<svg class="icon" viewBox="0 0 1024 1024" version="1.1" xmlns="http://www.w3.org/2000/svg"
     width="35" height="35">
    <path d="M434.18 290.746c0.46 0 0.66 0.702 0.66 2.473l0.03 0.002s-0.03 66.913 0.018 67.888c1.119 32.365 25.545 59.232 56.9 62.544l0.197 0.021c80.164 7.61 150.936 39.973 210.353 96.186 42.732 40.429 79.164 92.45 108.372 154.731 0.942 2.009 0.643 5.035-1.454 5.035-0.823 0-1.923-0.466-3.333-1.642-62.421-52.004-182.216-91.49-307.218-94.098l-0.004 0.052c-34.071 0.246-62.603 28.337-63.816 62.884-0.051 0.967-0.025 63.097-0.018 84.13 0 1.536-0.134 2.303-0.646 2.303-0.483 0-1.306-0.683-2.67-2.05-52.271-52.291-212.932-205.238-212.932-205.238-3.746-4.842-5.803-10.958-5.803-17.335 0-7.47 2.763-14.421 7.79-19.63l0.032-0.017s160.344-145.506 211.36-196.534c1.019-1.017 1.728-1.705 2.181-1.705m-0.021-49.119c-13.809 0.006-26.223 5.423-36.9 16.098-47.924 47.937-197.52 183.89-208.95 194.27a48.492 48.492 0 0 0-3.048 2.9c-13.907 14.41-21.565 33.493-21.565 53.738 0 17.163 5.706 33.99 16.068 47.388a49.051 49.051 0 0 0 4.984 5.523c1.603 1.525 160.818 153.123 212.06 204.385 10.906 10.91 23.494 16.443 37.412 16.443 22.714 0 42.504-15.465 48.124-37.61 1.47-5.793 1.64-10.657 1.64-13.83v-1.656c-0.008-18.566-0.027-73.815 0.008-81.137 0.499-8.027 7.442-15.029 15.06-15.084 0.275-0.002 0.55-0.006 0.823-0.012C624.66 636.09 727.6 676.66 774.481 715.72c12.918 10.763 26.04 13.021 34.774 13.021 17.503 0 33.561-8.822 42.953-23.598 9.613-15.121 10.752-34.82 2.973-51.409-31.821-67.854-71.887-124.902-119.087-169.557-33.498-31.692-70.751-57.03-110.727-75.309-39.964-18.273-83.173-29.736-128.426-34.066-6.873-0.728-12.489-7.265-12.943-14.976-0.025-5.802-0.019-43.282-0.007-66.584a49.515 49.515 0 0 0-0.131-3.627c-0.22-3.905-0.802-7.575-1.767-11.137-5.874-21.698-25.578-36.853-47.913-36.853l-0.022 0.001z"
          fill="#707070"></path>
</svg>