<svg t="1682319196141" class="icon" viewBox="0 0 1024 1024" version="1.1" xmlns="http://www.w3.org/2000/svg" p-id="1868"
     width="20" height="20">
    <path d="M252.859985 587.368548l305.400618 0 0 67.970044-305.400618 0 0-67.970044Z" fill="#8a8a8a"
          p-id="1869"></path>
    <path d="M717.89944 613.769848c-135.782499 0-245.853407 131.108037-245.853407 131.108037s110.070908 131.110083 245.853407 131.110083c135.77943 0 245.848291-131.110083 245.848291-131.110083S853.67887 613.769848 717.89944 613.769848zM717.632357 844.191798c-53.18634 0-96.30744-42.979884-96.30744-95.997378 0-53.014424 43.120077-95.994308 96.30744-95.994308 53.188386 0 96.306416 42.979884 96.306416 95.994308C813.938774 801.209868 770.820744 844.191798 717.632357 844.191798z"
          fill="#8a8a8a" p-id="1870"></path>
    <path d="M717.632357 690.86369c-3.621481 0-7.136537 0.424672-10.573823 1.064238 11.449773 3.001357 19.938098 13.298887 19.938098 25.65531 0 14.70491-11.960403 26.627451-26.716478 26.627451-14.749936 0-26.710338-11.922541-26.710338-26.627451 0-2.496867 0.454348-4.864798 1.099031-7.157004-8.948813 10.110265-14.553461 23.231097-14.553461 37.770232 0 31.66007 25.7515 57.328683 57.515948 57.328683 31.764448 0 57.517995-25.668613 57.517995-57.328683C775.150352 716.535373 749.396805 690.86369 717.632357 690.86369z"
          fill="#8a8a8a" p-id="1871"></path>
    <path d="M188.587146 836.623425c-31.238468 0-56.645115-25.377994-56.645115-56.641021L131.942031 190.917214c0-31.238468 25.377994-56.676837 56.645115-56.676837l521.210779 0c31.238468 0 56.645115 25.406646 56.645115 56.676837l0 396.451334 67.938322 0L834.381361 190.917214c0-68.708871-55.845912-124.615159-124.583436-124.615159l-521.210779 0c-68.677149 0-124.583436 55.850006-124.583436 124.615159l0 589.06519c0 68.704778 55.850006 124.611066 124.583436 124.611066l369.673457 0 0-67.970044L188.587146 836.623425z"
          fill="#8a8a8a" p-id="1872"></path>
    <path d="M252.859985 315.52828l392.697847 0 0 67.941392-392.697847 0 0-67.941392Z" fill="#8a8a8a"
          p-id="1873"></path>
    <path d="M252.859985 451.465299l392.697847 0 0 67.965951-392.697847 0 0-67.965951Z" fill="#8a8a8a"
          p-id="1874"></path>
</svg>